<?xml version="1.0" encoding="UTF-8" standalone="no"?>
<svg
   version="1.1"
   viewBox="0 0 517.59997 432.96002"
   fill="none"
   stroke="none"
   stroke-linecap="square"
   stroke-miterlimit="10"
   id="svg111"
   sodipodi:docname="fits_sketch.svg"
   width="5.3916664in"
   height="4.5100002in"
   inkscape:export-filename="fits_sketch_.svg"
   inkscape:export-xdpi="96"
   inkscape:export-ydpi="96"
   inkscape:version="1.2.2 (b0a8486541, 2022-12-01)"
   xmlns:inkscape="http://www.inkscape.org/namespaces/inkscape"
   xmlns:sodipodi="http://sodipodi.sourceforge.net/DTD/sodipodi-0.dtd"
   xmlns="http://www.w3.org/2000/svg"
   xmlns:svg="http://www.w3.org/2000/svg">
  <defs
     id="defs115" />
  <sodipodi:namedview
     id="namedview113"
     pagecolor="#ffffff"
     bordercolor="#000000"
     borderopacity="0.25"
     inkscape:showpageshadow="2"
     inkscape:pageopacity="0.0"
     inkscape:pagecheckerboard="true"
     inkscape:deskcolor="#d1d1d1"
     showgrid="false"
     inkscape:zoom="1.2361274"
     inkscape:cx="347.0516"
     inkscape:cy="197.79514"
     inkscape:window-width="1920"
     inkscape:window-height="1131"
     inkscape:window-x="0"
     inkscape:window-y="0"
     inkscape:window-maximized="1"
     inkscape:current-layer="svg111"
     inkscape:document-units="in" />
  <clipPath
     id="g32d5e5b8009_0_80.0">
    <path
       d="M 0,0 H 960 V 540 H 0 Z"
       clip-rule="nonzero"
       id="path2" />
  </clipPath>
  <g
     clip-path="url(#g32d5e5b8009_0_80.0)"
     id="g109"
     transform="translate(-20.000001)">
    <path
       fill="#000000"
       fill-opacity="0"
       d="M 0,0 H 960 V 540 H 0 Z"
       fill-rule="evenodd"
       id="path5" />
    <path
       fill="#a10000"
       d="m 170.16011,80.22717 h 270.62994 v 55.51181 H 170.16011 Z"
       fill-rule="evenodd"
       id="path7" />
    <path
       fill="#800000"
       d="m 440.79004,80.22717 18.50394,-18.50394 v 55.51181 l -18.50394,18.50394 z"
       fill-rule="evenodd"
       id="path9" />
    <path
       fill="#b33333"
       d="M 170.16011,80.22717 188.66405,61.72323 H 459.29399 L 440.79005,80.22717 Z"
       fill-rule="evenodd"
       id="path11" />
    <path
       fill="#000000"
       fill-opacity="0"
       d="m 170.16011,80.22717 18.50394,-18.50394 h 270.62994 v 55.51181 l -18.50394,18.50394 H 170.16011 Z m 0,0 h 270.62994 l 18.50394,-18.50394 m -18.50394,18.50394 v 55.51181"
       fill-rule="evenodd"
       id="path13" />
    <path
       fill="#ffffff"
       d="M 287.20874,114.90308 V 101.5437 h 4.60937 q 1.54688,0 2.375,0.20313 1.14063,0.25 1.95313,0.95312 1.0625,0.89063 1.57812,2.28125 0.53122,1.39063 0.53122,3.17188 0,1.51562 -0.35934,2.70312 -0.35937,1.17188 -0.92187,1.9375 -0.54688,0.76563 -1.20313,1.21875 -0.65625,0.4375 -1.59375,0.67188 -0.9375,0.21875 -2.14062,0.21875 z m 1.76562,-1.57813 h 2.85938 q 1.3125,0 2.0625,-0.23437 0.75,-0.25 1.20312,-0.70313 0.625,-0.625 0.96875,-1.6875 0.35938,-1.0625 0.35938,-2.57812 0,-2.09375 -0.6875,-3.21875 -0.6875,-1.125 -1.67188,-1.5 -0.70312,-0.28125 -2.28125,-0.28125 h -2.8125 z m 17.81668,0.39063 q -0.92187,0.76562 -1.76562,1.09375 -0.82813,0.3125 -1.79688,0.3125 -1.59375,0 -2.45312,-0.78125 -0.85938,-0.78125 -0.85938,-1.98438 0,-0.71875 0.32813,-1.29687 0.32812,-0.59375 0.84375,-0.9375 0.53125,-0.35938 1.1875,-0.54688 0.46875,-0.125 1.45312,-0.25 1.98438,-0.23437 2.92188,-0.5625 0.0156,-0.34375 0.0156,-0.42187 0,-1 -0.46875,-1.42188 -0.625,-0.54687 -1.875,-0.54687 -1.15625,0 -1.70312,0.40625 -0.54688,0.40625 -0.8125,1.42187 l -1.60938,-0.21875 q 0.21875,-1.01562 0.71875,-1.64062 0.5,-0.64063 1.45313,-0.98438 0.95312,-0.34375 2.1875,-0.34375 1.25,0 2.01562,0.29688 0.78125,0.28125 1.14063,0.73437 0.375,0.4375 0.51562,1.10938 0.0781,0.42187 0.0781,1.51562 v 2.1875 q 0,2.28125 0.10937,2.89063 0.10938,0.59375 0.40625,1.15625 h -1.70312 q -0.26563,-0.51563 -0.32813,-1.1875 z m -0.14062,-3.67188 q -0.89063,0.375 -2.67188,0.625 -1.01562,0.14063 -1.4375,0.32813 -0.42187,0.1875 -0.65625,0.53125 -0.21875,0.34375 -0.21875,0.78125 0,0.65625 0.5,1.09375 0.5,0.4375 1.45313,0.4375 0.9375,0 1.67187,-0.40625 0.75,-0.42188 1.09375,-1.14063 0.26563,-0.5625 0.26563,-1.64062 z m 7.78195,3.39063 0.23438,1.45312 q -0.6875,0.14063 -1.23438,0.14063 -0.89062,0 -1.39062,-0.28125 -0.48438,-0.28125 -0.6875,-0.73438 -0.20313,-0.46875 -0.20313,-1.9375 v -5.57812 H 309.948 v -1.26563 h 1.20312 v -2.39062 l 1.625,-0.98438 v 3.375 h 1.65625 v 1.26563 h -1.65625 v 5.67187 q 0,0.6875 0.0781,0.89063 0.0937,0.20312 0.28125,0.32812 0.20312,0.10938 0.57812,0.10938 0.26563,0 0.71875,-0.0625 z m 7.9177,0.28125 q -0.92188,0.76562 -1.76563,1.09375 -0.82812,0.3125 -1.79687,0.3125 -1.59375,0 -2.45313,-0.78125 -0.85937,-0.78125 -0.85937,-1.98438 0,-0.71875 0.32812,-1.29687 0.32813,-0.59375 0.84375,-0.9375 0.53125,-0.35938 1.1875,-0.54688 0.46875,-0.125 1.45313,-0.25 1.98437,-0.23437 2.92187,-0.5625 0.0156,-0.34375 0.0156,-0.42187 0,-1 -0.46875,-1.42188 -0.625,-0.54687 -1.875,-0.54687 -1.15625,0 -1.70313,0.40625 -0.54687,0.40625 -0.8125,1.42187 l -1.60937,-0.21875 q 0.21875,-1.01562 0.71875,-1.64062 0.5,-0.64063 1.45312,-0.98438 0.95313,-0.34375 2.1875,-0.34375 1.25,0 2.01563,0.29688 0.78125,0.28125 1.14062,0.73437 0.375,0.4375 0.51563,1.10938 0.0781,0.42187 0.0781,1.51562 v 2.1875 q 0,2.28125 0.10938,2.89063 0.10937,0.59375 0.40625,1.15625 h -1.70313 q -0.26562,-0.51563 -0.32812,-1.1875 z m -0.14063,-3.67188 q -0.89062,0.375 -2.67187,0.625 -1.01563,0.14063 -1.4375,0.32813 -0.42188,0.1875 -0.65625,0.53125 -0.21875,0.34375 -0.21875,0.78125 0,0.65625 0.5,1.09375 0.5,0.4375 1.45312,0.4375 0.9375,0 1.67188,-0.40625 0.75,-0.42188 1.09375,-1.14063 0.26562,-0.5625 0.26562,-1.64062 z"
       fill-rule="nonzero"
       id="path15" />
    <path
       fill="#666666"
       d="m 170.16011,19.010498 h 270.62994 v 55.51181 H 170.16011 Z"
       fill-rule="evenodd"
       id="path17" />
    <path
       fill="#515151"
       d="M 440.79004,19.010498 459.29398,0.506561 v 55.51181 l -18.50394,18.503937 z"
       fill-rule="evenodd"
       id="path19" />
    <path
       fill="#848484"
       d="M 170.16011,19.010498 188.66405,0.506561 h 270.62994 l -18.50394,18.503937 z"
       fill-rule="evenodd"
       id="path21" />
    <path
       fill="#000000"
       fill-opacity="0"
       d="M 170.16011,19.010498 188.66405,0.506561 h 270.62994 v 55.51181 L 440.79005,74.522308 H 170.16011 Z m 0,0 H 440.79005 L 459.29399,0.506561 m -18.50394,18.503937 v 55.51181"
       fill-rule="evenodd"
       id="path23" />
    <path
       fill="#ffffff"
       d="M 241.59747,53.6864 V 40.327025 h 5.04687 q 1.32813,0 2.03125,0.125 0.96875,0.171875 1.64063,0.640625 0.67187,0.453125 1.07812,1.28125 0.40625,0.828125 0.40625,1.828125 0,1.703125 -1.09375,2.890625 -1.07812,1.171875 -3.92187,1.171875 h -3.42188 V 53.6864 Z m 1.76562,-7 h 3.45313 q 1.71875,0 2.4375,-0.640625 0.71875,-0.640625 0.71875,-1.796875 0,-0.84375 -0.42188,-1.4375 -0.42187,-0.59375 -1.125,-0.78125 -0.4375,-0.125 -1.64062,-0.125 h -3.42188 z m 10.4592,7 v -9.671875 h 1.46875 v 1.46875 q 0.5625,-1.03125 1.03125,-1.359375 0.48438,-0.328125 1.0625,-0.328125 0.82813,0 1.6875,0.53125 l -0.5625,1.515625 q -0.60937,-0.359375 -1.20312,-0.359375 -0.54688,0 -0.96875,0.328125 -0.42188,0.328125 -0.60938,0.890625 -0.28125,0.875 -0.28125,1.921875 v 5.0625 z m 6.2283,-11.46875 v -1.890625 h 1.64063 v 1.890625 z m 0,11.46875 v -9.671875 h 1.64063 V 53.6864 Z m 4.14484,0 v -9.671875 h 1.46875 V 45.3739 q 0.45313,-0.71875 1.20313,-1.140625 0.76562,-0.4375 1.71875,-0.4375 1.07812,0 1.76562,0.453125 0.6875,0.4375 0.96875,1.234375 1.15625,-1.6875 2.98438,-1.6875 1.45312,0 2.21875,0.796875 0.78125,0.796875 0.78125,2.453125 V 53.6864 h -1.64063 v -6.09375 q 0,-0.984375 -0.15625,-1.40625 -0.15625,-0.4375 -0.57812,-0.703125 -0.42188,-0.265625 -0.98438,-0.265625 -1.01562,0 -1.6875,0.6875 -0.67187,0.671875 -0.67187,2.15625 v 5.625 h -1.64063 v -6.28125 q 0,-1.09375 -0.40625,-1.640625 -0.40625,-0.546875 -1.3125,-0.546875 -0.6875,0 -1.28125,0.359375 -0.59375,0.359375 -0.85937,1.0625 -0.25,0.703125 -0.25,2.03125 V 53.6864 Z m 21.8533,-1.1875 q -0.92187,0.765625 -1.76562,1.09375 -0.82813,0.3125 -1.79688,0.3125 -1.59375,0 -2.45312,-0.78125 -0.85938,-0.78125 -0.85938,-1.984375 0,-0.71875 0.32813,-1.296875 0.32812,-0.59375 0.84375,-0.9375 0.53125,-0.359375 1.1875,-0.546875 0.46875,-0.125 1.45312,-0.25 1.98438,-0.234375 2.92188,-0.5625 0.0156,-0.34375 0.0156,-0.421875 0,-1 -0.46875,-1.421875 -0.625,-0.546875 -1.875,-0.546875 -1.15625,0 -1.70312,0.40625 -0.54688,0.40625 -0.8125,1.421875 l -1.60938,-0.21875 q 0.21875,-1.015625 0.71875,-1.640625 0.5,-0.640625 1.45313,-0.984375 0.95312,-0.34375 2.1875,-0.34375 1.25,0 2.01562,0.296875 0.78125,0.28125 1.14063,0.734375 0.375,0.4375 0.51562,1.109375 0.0781,0.421875 0.0781,1.515625 v 2.1875 q 0,2.28125 0.10937,2.890625 0.10938,0.59375 0.40625,1.15625 h -1.70312 q -0.26563,-0.515625 -0.32813,-1.1875 z m -0.14062,-3.671875 q -0.89063,0.375 -2.67188,0.625 -1.01562,0.140625 -1.4375,0.328125 -0.42187,0.1875 -0.65625,0.53125 -0.21875,0.34375 -0.21875,0.78125 0,0.65625 0.5,1.09375 0.5,0.4375 1.45313,0.4375 0.9375,0 1.67187,-0.40625 0.75,-0.421875 1.09375,-1.140625 0.26563,-0.5625 0.26563,-1.640625 z m 4.1882,4.859375 v -9.671875 h 1.46875 v 1.46875 q 0.5625,-1.03125 1.03125,-1.359375 0.48438,-0.328125 1.0625,-0.328125 0.82813,0 1.6875,0.53125 l -0.5625,1.515625 q -0.60937,-0.359375 -1.20312,-0.359375 -0.54688,0 -0.96875,0.328125 -0.42188,0.328125 -0.60938,0.890625 -0.28125,0.875 -0.28125,1.921875 v 5.0625 z m 6.15018,3.71875 -0.1875,-1.53125 q 0.54687,0.140625 0.9375,0.140625 0.54687,0 0.875,-0.1875 0.32812,-0.171875 0.54687,-0.5 0.15625,-0.25 0.5,-1.21875 0.0469,-0.140625 0.14063,-0.40625 l -3.67188,-9.6875 h 1.76563 l 2.01562,5.59375 q 0.39063,1.078125 0.70313,2.25 0.28125,-1.125 0.67187,-2.203125 l 2.07813,-5.640625 h 1.64062 l -3.6875,9.828125 q -0.59375,1.609375 -0.92187,2.203125 -0.4375,0.8125 -1,1.1875 -0.5625,0.375 -1.34375,0.375 -0.48438,0 -1.0625,-0.203125 z M 311.10165,53.6864 V 40.327025 h 1.76563 V 45.8114 h 6.9375 v -5.484375 h 1.76562 V 53.6864 h -1.76562 v -6.296875 h -6.9375 V 53.6864 Z m 19.83234,-3.109375 1.6875,0.203125 q -0.40625,1.484375 -1.48438,2.3125 -1.07812,0.8125 -2.76562,0.8125 -2.125,0 -3.375,-1.296875 -1.23438,-1.3125 -1.23438,-3.671875 0,-2.453125 1.25,-3.796875 1.26563,-1.34375 3.26563,-1.34375 1.9375,0 3.15625,1.328125 1.23437,1.3125 1.23437,3.703125 0,0.15625 0,0.4375 h -7.21875 q 0.0937,1.59375 0.90625,2.453125 0.8125,0.84375 2.01563,0.84375 0.90625,0 1.54687,-0.46875 0.64063,-0.484375 1.01563,-1.515625 z m -5.39063,-2.65625 h 5.40625 q -0.10937,-1.21875 -0.625,-1.828125 -0.78125,-0.953125 -2.03125,-0.953125 -1.125,0 -1.90625,0.765625 -0.76562,0.75 -0.84375,2.015625 z m 15.45383,4.578125 q -0.92188,0.765625 -1.76563,1.09375 -0.82812,0.3125 -1.79687,0.3125 -1.59375,0 -2.45313,-0.78125 -0.85937,-0.78125 -0.85937,-1.984375 0,-0.71875 0.32812,-1.296875 0.32813,-0.59375 0.84375,-0.9375 0.53125,-0.359375 1.1875,-0.546875 0.46875,-0.125 1.45313,-0.25 1.98437,-0.234375 2.92187,-0.5625 0.0156,-0.34375 0.0156,-0.421875 0,-1 -0.46875,-1.421875 -0.625,-0.546875 -1.875,-0.546875 -1.15625,0 -1.70313,0.40625 -0.54687,0.40625 -0.8125,1.421875 l -1.60937,-0.21875 q 0.21875,-1.015625 0.71875,-1.640625 0.5,-0.640625 1.45312,-0.984375 0.95313,-0.34375 2.1875,-0.34375 1.25,0 2.01563,0.296875 0.78125,0.28125 1.14062,0.734375 0.375,0.4375 0.51563,1.109375 0.0781,0.421875 0.0781,1.515625 v 2.1875 q 0,2.28125 0.10938,2.890625 0.10937,0.59375 0.40625,1.15625 h -1.70313 q -0.26562,-0.515625 -0.32812,-1.1875 z m -0.14063,-3.671875 q -0.89062,0.375 -2.67187,0.625 -1.01563,0.140625 -1.4375,0.328125 -0.42188,0.1875 -0.65625,0.53125 -0.21875,0.34375 -0.21875,0.78125 0,0.65625 0.5,1.09375 0.5,0.4375 1.45312,0.4375 0.9375,0 1.67188,-0.40625 0.75,-0.421875 1.09375,-1.140625 0.26562,-0.5625 0.26562,-1.640625 z m 10.46949,4.859375 v -1.21875 q -0.90625,1.4375 -2.70313,1.4375 -1.15625,0 -2.125,-0.640625 -0.96875,-0.640625 -1.5,-1.78125 -0.53125,-1.140625 -0.53125,-2.625 0,-1.453125 0.48438,-2.625 0.48437,-1.1875 1.4375,-1.8125 0.96875,-0.625 2.17187,-0.625 0.875,0 1.54688,0.375 0.6875,0.359375 1.10937,0.953125 v -4.796875 h 1.64063 V 53.6864 Z m -5.17188,-4.828125 q 0,1.859375 0.78125,2.78125 0.78125,0.921875 1.84375,0.921875 1.07813,0 1.82813,-0.875 0.75,-0.890625 0.75,-2.6875 0,-1.984375 -0.76563,-2.90625 -0.76562,-0.9375 -1.89062,-0.9375 -1.07813,0 -1.8125,0.890625 -0.73438,0.890625 -0.73438,2.8125 z m 15.90695,1.71875 1.6875,0.203125 q -0.40625,1.484375 -1.48437,2.3125 -1.07813,0.8125 -2.76563,0.8125 -2.125,0 -3.375,-1.296875 -1.23437,-1.3125 -1.23437,-3.671875 0,-2.453125 1.25,-3.796875 1.26562,-1.34375 3.26562,-1.34375 1.9375,0 3.15625,1.328125 1.23438,1.3125 1.23438,3.703125 0,0.15625 0,0.4375 h -7.21875 q 0.0937,1.59375 0.90625,2.453125 0.8125,0.84375 2.01562,0.84375 0.90625,0 1.54688,-0.46875 0.64062,-0.484375 1.01562,-1.515625 z m -5.39062,-2.65625 h 5.40625 q -0.10938,-1.21875 -0.625,-1.828125 -0.78125,-0.953125 -2.03125,-0.953125 -1.125,0 -1.90625,0.765625 -0.76563,0.75 -0.84375,2.015625 z m 9.12573,5.765625 v -9.671875 h 1.46875 v 1.46875 q 0.5625,-1.03125 1.03125,-1.359375 0.48438,-0.328125 1.0625,-0.328125 0.82813,0 1.6875,0.53125 l -0.5625,1.515625 q -0.60937,-0.359375 -1.20312,-0.359375 -0.54688,0 -0.96875,0.328125 -0.42188,0.328125 -0.60938,0.890625 -0.28125,0.875 -0.28125,1.921875 v 5.0625 z"
       fill-rule="nonzero"
       id="path25" />
    <path
       fill="#a10000"
       d="m 170.16011,228.66382 h 270.62994 v 55.51181 H 170.16011 Z"
       fill-rule="evenodd"
       id="path27" />
    <path
       fill="#800000"
       d="m 440.79004,228.66382 18.50394,-18.50394 v 55.51181 l -18.50394,18.50394 z"
       fill-rule="evenodd"
       id="path29" />
    <path
       fill="#b33333"
       d="m 170.16011,228.66382 18.50394,-18.50394 h 270.62994 l -18.50394,18.50394 z"
       fill-rule="evenodd"
       id="path31" />
    <path
       fill="#000000"
       fill-opacity="0"
       d="m 170.16011,228.66382 18.50394,-18.50394 h 270.62994 v 55.51181 l -18.50394,18.50394 H 170.16011 Z m 0,0 h 270.62994 l 18.50394,-18.50394 m -18.50394,18.50394 v 55.51181"
       fill-rule="evenodd"
       id="path33" />
    <path
       fill="#ffffff"
       d="m 287.20874,263.33972 v -13.35938 h 4.60937 q 1.54688,0 2.375,0.20313 1.14063,0.25 1.95313,0.95312 1.0625,0.89063 1.57812,2.28125 0.53122,1.39063 0.53122,3.17188 0,1.51562 -0.35934,2.70312 -0.35937,1.17188 -0.92187,1.9375 -0.54688,0.76563 -1.20313,1.21875 -0.65625,0.4375 -1.59375,0.67188 -0.9375,0.21875 -2.14062,0.21875 z m 1.76562,-1.57813 h 2.85938 q 1.3125,0 2.0625,-0.23437 0.75,-0.25 1.20312,-0.70313 0.625,-0.625 0.96875,-1.6875 0.35938,-1.0625 0.35938,-2.57812 0,-2.09375 -0.6875,-3.21875 -0.6875,-1.125 -1.67188,-1.5 -0.70312,-0.28125 -2.28125,-0.28125 h -2.8125 z m 17.81668,0.39063 q -0.92187,0.76562 -1.76562,1.09375 -0.82813,0.3125 -1.79688,0.3125 -1.59375,0 -2.45312,-0.78125 -0.85938,-0.78125 -0.85938,-1.98438 0,-0.71875 0.32813,-1.29687 0.32812,-0.59375 0.84375,-0.9375 0.53125,-0.35938 1.1875,-0.54688 0.46875,-0.125 1.45312,-0.25 1.98438,-0.23437 2.92188,-0.5625 0.0156,-0.34375 0.0156,-0.42187 0,-1 -0.46875,-1.42188 -0.625,-0.54687 -1.875,-0.54687 -1.15625,0 -1.70312,0.40625 -0.54688,0.40625 -0.8125,1.42187 l -1.60938,-0.21875 q 0.21875,-1.01562 0.71875,-1.64062 0.5,-0.64063 1.45313,-0.98438 0.95312,-0.34375 2.1875,-0.34375 1.25,0 2.01562,0.29688 0.78125,0.28125 1.14063,0.73437 0.375,0.4375 0.51562,1.10938 0.0781,0.42187 0.0781,1.51562 v 2.1875 q 0,2.28125 0.10937,2.89063 0.10938,0.59375 0.40625,1.15625 h -1.70312 q -0.26563,-0.51563 -0.32813,-1.1875 z m -0.14062,-3.67188 q -0.89063,0.375 -2.67188,0.625 -1.01562,0.14063 -1.4375,0.32813 -0.42187,0.1875 -0.65625,0.53125 -0.21875,0.34375 -0.21875,0.78125 0,0.65625 0.5,1.09375 0.5,0.4375 1.45313,0.4375 0.9375,0 1.67187,-0.40625 0.75,-0.42188 1.09375,-1.14063 0.26563,-0.5625 0.26563,-1.64062 z m 7.78195,3.39063 0.23438,1.45312 q -0.6875,0.14063 -1.23438,0.14063 -0.89062,0 -1.39062,-0.28125 -0.48438,-0.28125 -0.6875,-0.73438 -0.20313,-0.46875 -0.20313,-1.9375 v -5.57812 H 309.948 v -1.26563 h 1.20312 v -2.39062 l 1.625,-0.98438 v 3.375 h 1.65625 v 1.26563 h -1.65625 v 5.67187 q 0,0.6875 0.0781,0.89063 0.0937,0.20312 0.28125,0.32812 0.20312,0.10938 0.57812,0.10938 0.26563,0 0.71875,-0.0625 z m 7.9177,0.28125 q -0.92188,0.76562 -1.76563,1.09375 -0.82812,0.3125 -1.79687,0.3125 -1.59375,0 -2.45313,-0.78125 -0.85937,-0.78125 -0.85937,-1.98438 0,-0.71875 0.32812,-1.29687 0.32813,-0.59375 0.84375,-0.9375 0.53125,-0.35938 1.1875,-0.54688 0.46875,-0.125 1.45313,-0.25 1.98437,-0.23437 2.92187,-0.5625 0.0156,-0.34375 0.0156,-0.42187 0,-1 -0.46875,-1.42188 -0.625,-0.54687 -1.875,-0.54687 -1.15625,0 -1.70313,0.40625 -0.54687,0.40625 -0.8125,1.42187 l -1.60937,-0.21875 q 0.21875,-1.01562 0.71875,-1.64062 0.5,-0.64063 1.45312,-0.98438 0.95313,-0.34375 2.1875,-0.34375 1.25,0 2.01563,0.29688 0.78125,0.28125 1.14062,0.73437 0.375,0.4375 0.51563,1.10938 0.0781,0.42187 0.0781,1.51562 v 2.1875 q 0,2.28125 0.10938,2.89063 0.10937,0.59375 0.40625,1.15625 h -1.70313 q -0.26562,-0.51563 -0.32812,-1.1875 z m -0.14063,-3.67188 q -0.89062,0.375 -2.67187,0.625 -1.01563,0.14063 -1.4375,0.32813 -0.42188,0.1875 -0.65625,0.53125 -0.21875,0.34375 -0.21875,0.78125 0,0.65625 0.5,1.09375 0.5,0.4375 1.45312,0.4375 0.9375,0 1.67188,-0.40625 0.75,-0.42188 1.09375,-1.14063 0.26562,-0.5625 0.26562,-1.64062 z"
       fill-rule="nonzero"
       id="path35" />
    <path
       fill="#666666"
       d="m 170.16011,167.44714 h 270.62994 v 55.51181 H 170.16011 Z"
       fill-rule="evenodd"
       id="path37" />
    <path
       fill="#515151"
       d="m 440.79004,167.44714 18.50394,-18.50394 v 55.51181 l -18.50394,18.50394 z"
       fill-rule="evenodd"
       id="path39" />
    <path
       fill="#848484"
       d="m 170.16011,167.44714 18.50394,-18.50394 h 270.62994 l -18.50394,18.50394 z"
       fill-rule="evenodd"
       id="path41" />
    <path
       fill="#000000"
       fill-opacity="0"
       d="m 170.16011,167.44714 18.50394,-18.50394 h 270.62994 v 55.51181 l -18.50394,18.50394 H 170.16011 Z m 0,0 h 270.62994 l 18.50394,-18.50394 m -18.50394,18.50394 v 55.51181"
       fill-rule="evenodd"
       id="path43" />
    <path
       fill="#ffffff"
       d="m 232.79251,202.12305 v -13.35938 h 9.65625 v 1.57813 h -7.875 v 4.09375 h 7.375 v 1.5625 h -7.375 v 4.54687 h 8.1875 v 1.57813 z m 11.11545,0 3.53125,-5.03125 -3.26563,-4.64063 h 2.04688 l 1.48437,2.26563 q 0.42188,0.64062 0.67188,1.07812 0.40625,-0.59375 0.73437,-1.0625 l 1.64063,-2.28125 h 1.95312 l -3.34375,4.54688 3.59375,5.125 h -2.01562 l -1.98438,-3 -0.51562,-0.8125 -2.54688,3.8125 z m 14,-1.46875 0.23437,1.45312 q -0.6875,0.14063 -1.23437,0.14063 -0.89063,0 -1.39063,-0.28125 -0.48437,-0.28125 -0.6875,-0.73438 -0.20312,-0.46875 -0.20312,-1.9375 v -5.57812 h -1.20313 v -1.26563 h 1.20313 v -2.39062 l 1.625,-0.98438 v 3.375 h 1.65625 v 1.26563 h -1.65625 v 5.67187 q 0,0.6875 0.0781,0.89063 0.0937,0.20312 0.28125,0.32812 0.20313,0.10938 0.57813,0.10938 0.26562,0 0.71875,-0.0625 z m 8.23019,-1.64063 1.6875,0.20313 q -0.40625,1.48437 -1.48437,2.3125 -1.07813,0.8125 -2.76563,0.8125 -2.125,0 -3.375,-1.29688 -1.23437,-1.3125 -1.23437,-3.67187 0,-2.45313 1.25,-3.79688 1.26562,-1.34375 3.26562,-1.34375 1.9375,0 3.15625,1.32813 1.23438,1.3125 1.23438,3.70312 0,0.15625 0,0.4375 h -7.21875 q 0.0937,1.59375 0.90625,2.45313 0.8125,0.84375 2.01562,0.84375 0.90625,0 1.54688,-0.46875 0.64062,-0.48438 1.01562,-1.51563 z m -5.39062,-2.65625 h 5.40625 q -0.10938,-1.21875 -0.625,-1.82812 -0.78125,-0.95313 -2.03125,-0.95313 -1.125,0 -1.90625,0.76563 -0.76563,0.75 -0.84375,2.01562 z m 9.14132,5.76563 v -9.67188 h 1.46875 v 1.375 q 1.0625,-1.59375 3.07813,-1.59375 0.875,0 1.60937,0.3125 0.73438,0.3125 1.09375,0.82813 0.375,0.5 0.51563,1.20312 0.0937,0.45313 0.0937,1.59375 v 5.95313 h -1.64063 v -5.89063 q 0,-1 -0.20312,-1.48437 -0.1875,-0.5 -0.67188,-0.79688 -0.48437,-0.29687 -1.14062,-0.29687 -1.04688,0 -1.8125,0.67187 -0.75,0.65625 -0.75,2.51563 v 5.28125 z m 9.71949,-2.89063 1.625,-0.25 q 0.125,0.96875 0.75,1.5 0.625,0.51563 1.75,0.51563 1.125,0 1.67187,-0.45313 0.54688,-0.46875 0.54688,-1.09375 0,-0.54687 -0.48438,-0.875 -0.32812,-0.21875 -1.67187,-0.54687 -1.8125,-0.46875 -2.51563,-0.79688 -0.6875,-0.32812 -1.04687,-0.90625 -0.35938,-0.59375 -0.35938,-1.3125 0,-0.64062 0.29688,-1.1875 0.29687,-0.5625 0.8125,-0.92187 0.375,-0.28125 1.03125,-0.46875 0.67187,-0.20313 1.42187,-0.20313 1.14063,0 2,0.32813 0.85938,0.32812 1.26563,0.89062 0.42187,0.5625 0.57812,1.5 l -1.60937,0.21875 q -0.10938,-0.75 -0.64063,-1.17187 -0.51562,-0.42188 -1.46875,-0.42188 -1.14062,0 -1.625,0.375 -0.46875,0.375 -0.46875,0.875 0,0.3125 0.1875,0.57813 0.20313,0.26562 0.64063,0.4375 0.23437,0.0937 1.4375,0.42187 1.75,0.45313 2.4375,0.75 0.6875,0.29688 1.07812,0.85938 0.39063,0.5625 0.39063,1.40625 0,0.82812 -0.48438,1.54687 -0.46875,0.71875 -1.375,1.125 -0.90625,0.39063 -2.04687,0.39063 -1.875,0 -2.875,-0.78125 -0.98438,-0.78125 -1.25,-2.32813 z m 9.98437,-8.57812 v -1.89063 h 1.64063 v 1.89063 z m 0,11.46875 v -9.67188 h 1.64063 v 9.67188 z m 3.53543,-4.84375 q 0,-2.6875 1.48438,-3.96875 1.25,-1.07813 3.04687,-1.07813 2,0 3.26563,1.3125 1.26562,1.29688 1.26562,3.60938 0,1.85937 -0.5625,2.9375 -0.5625,1.0625 -1.64062,1.65625 -1.0625,0.59375 -2.32813,0.59375 -2.03125,0 -3.28125,-1.29688 -1.25,-1.3125 -1.25,-3.76562 z m 1.6875,0 q 0,1.85937 0.79688,2.79687 0.8125,0.92188 2.04687,0.92188 1.21875,0 2.03125,-0.92188 0.8125,-0.9375 0.8125,-2.84375 0,-1.79687 -0.8125,-2.71875 -0.8125,-0.92187 -2.03125,-0.92187 -1.23437,0 -2.04687,0.92187 -0.79688,0.90625 -0.79688,2.76563 z m 9.29758,4.84375 v -9.67188 h 1.46875 v 1.375 q 1.0625,-1.59375 3.07812,-1.59375 0.875,0 1.60938,0.3125 0.73437,0.3125 1.09375,0.82813 0.375,0.5 0.51562,1.20312 0.0937,0.45313 0.0937,1.59375 v 5.95313 h -1.64062 v -5.89063 q 0,-1 -0.20313,-1.48437 -0.1875,-0.5 -0.67187,-0.79688 -0.48438,-0.29687 -1.14063,-0.29687 -1.04687,0 -1.8125,0.67187 -0.75,0.65625 -0.75,2.51563 v 5.28125 z m 15.82464,0 v -13.35938 h 1.76563 v 5.48438 h 6.9375 v -5.48438 h 1.76562 v 13.35938 h -1.76562 v -6.29688 h -6.9375 v 6.29688 z m 19.83234,-3.10938 1.6875,0.20313 q -0.40625,1.48437 -1.48437,2.3125 -1.07813,0.8125 -2.76563,0.8125 -2.125,0 -3.375,-1.29688 -1.23437,-1.3125 -1.23437,-3.67187 0,-2.45313 1.25,-3.79688 1.26562,-1.34375 3.26562,-1.34375 1.9375,0 3.15625,1.32813 1.23438,1.3125 1.23438,3.70312 0,0.15625 0,0.4375 h -7.21875 q 0.0937,1.59375 0.90625,2.45313 0.8125,0.84375 2.01562,0.84375 0.90625,0 1.54688,-0.46875 0.64062,-0.48438 1.01562,-1.51563 z m -5.39062,-2.65625 h 5.40625 q -0.10938,-1.21875 -0.625,-1.82812 -0.78125,-0.95313 -2.03125,-0.95313 -1.125,0 -1.90625,0.76563 -0.76563,0.75 -0.84375,2.01562 z m 15.45382,4.57813 q -0.92187,0.76562 -1.76562,1.09375 -0.82813,0.3125 -1.79688,0.3125 -1.59375,0 -2.45312,-0.78125 -0.85938,-0.78125 -0.85938,-1.98438 0,-0.71875 0.32813,-1.29687 0.32812,-0.59375 0.84375,-0.9375 0.53125,-0.35938 1.1875,-0.54688 0.46875,-0.125 1.45312,-0.25 1.98438,-0.23437 2.92188,-0.5625 0.0156,-0.34375 0.0156,-0.42187 0,-1 -0.46875,-1.42188 -0.625,-0.54687 -1.875,-0.54687 -1.15625,0 -1.70312,0.40625 -0.54688,0.40625 -0.8125,1.42187 l -1.60938,-0.21875 q 0.21875,-1.01562 0.71875,-1.64062 0.5,-0.64063 1.45313,-0.98438 0.95312,-0.34375 2.1875,-0.34375 1.25,0 2.01562,0.29688 0.78125,0.28125 1.14063,0.73437 0.375,0.4375 0.51562,1.10938 0.0781,0.42187 0.0781,1.51562 v 2.1875 q 0,2.28125 0.10937,2.89063 0.10938,0.59375 0.40625,1.15625 h -1.70312 q -0.26563,-0.51563 -0.32813,-1.1875 z m -0.14062,-3.67188 q -0.89063,0.375 -2.67188,0.625 -1.01562,0.14063 -1.4375,0.32813 -0.42187,0.1875 -0.65625,0.53125 -0.21875,0.34375 -0.21875,0.78125 0,0.65625 0.5,1.09375 0.5,0.4375 1.45313,0.4375 0.9375,0 1.67187,-0.40625 0.75,-0.42188 1.09375,-1.14063 0.26563,-0.5625 0.26563,-1.64062 z m 10.46948,4.85938 v -1.21875 q -0.90625,1.4375 -2.70313,1.4375 -1.15625,0 -2.125,-0.64063 -0.96875,-0.64062 -1.5,-1.78125 -0.53125,-1.14062 -0.53125,-2.625 0,-1.45312 0.48438,-2.625 0.48437,-1.1875 1.4375,-1.8125 0.96875,-0.625 2.17187,-0.625 0.875,0 1.54688,0.375 0.6875,0.35938 1.10937,0.95313 v -4.79688 h 1.64063 v 13.35938 z m -5.17188,-4.82813 q 0,1.85938 0.78125,2.78125 0.78125,0.92188 1.84375,0.92188 1.07813,0 1.82813,-0.875 0.75,-0.89063 0.75,-2.6875 0,-1.98438 -0.76563,-2.90625 -0.76562,-0.9375 -1.89062,-0.9375 -1.07813,0 -1.8125,0.89062 -0.73438,0.89063 -0.73438,2.8125 z m 15.90696,1.71875 1.6875,0.20313 q -0.40625,1.48437 -1.48438,2.3125 -1.07812,0.8125 -2.76562,0.8125 -2.125,0 -3.375,-1.29688 -1.23438,-1.3125 -1.23438,-3.67187 0,-2.45313 1.25,-3.79688 1.26563,-1.34375 3.26563,-1.34375 1.9375,0 3.15625,1.32813 1.23437,1.3125 1.23437,3.70312 0,0.15625 0,0.4375 h -7.21875 q 0.0937,1.59375 0.90625,2.45313 0.8125,0.84375 2.01563,0.84375 0.90625,0 1.54687,-0.46875 0.64063,-0.48438 1.01563,-1.51563 z m -5.39063,-2.65625 h 5.40625 q -0.10937,-1.21875 -0.625,-1.82812 -0.78125,-0.95313 -2.03125,-0.95313 -1.125,0 -1.90625,0.76563 -0.76562,0.75 -0.84375,2.01562 z m 9.12573,5.76563 v -9.67188 h 1.46875 v 1.46875 q 0.5625,-1.03125 1.03125,-1.35937 0.48438,-0.32813 1.0625,-0.32813 0.82813,0 1.6875,0.53125 l -0.5625,1.51563 q -0.60937,-0.35938 -1.20312,-0.35938 -0.54688,0 -0.96875,0.32813 -0.42188,0.32812 -0.60938,0.89062 -0.28125,0.875 -0.28125,1.92188 v 5.0625 z"
       fill-rule="nonzero"
       id="path45" />
    <path
       fill="#a10000"
       d="m 170.16011,377.09952 h 270.62994 v 55.51181 H 170.16011 Z"
       fill-rule="evenodd"
       id="path47" />
    <path
       fill="#800000"
       d="m 440.79004,377.09952 18.50394,-18.50394 v 55.51181 l -18.50394,18.50394 z"
       fill-rule="evenodd"
       id="path49" />
    <path
       fill="#b33333"
       d="m 170.16011,377.09952 18.50394,-18.50394 h 270.62994 l -18.50394,18.50394 z"
       fill-rule="evenodd"
       id="path51" />
    <path
       fill="#000000"
       fill-opacity="0"
       d="m 170.16011,377.09952 18.50394,-18.50394 h 270.62994 v 55.51181 l -18.50394,18.50394 H 170.16011 Z m 0,0 h 270.62994 l 18.50394,-18.50394 m -18.50394,18.50394 v 55.51181"
       fill-rule="evenodd"
       id="path53" />
    <path
       fill="#ffffff"
       d="m 287.20874,411.77542 v -13.35938 h 4.60937 q 1.54688,0 2.375,0.20313 1.14063,0.25 1.95313,0.95312 1.0625,0.89063 1.57812,2.28125 0.53122,1.39063 0.53122,3.17188 0,1.51562 -0.35934,2.70312 -0.35937,1.17188 -0.92187,1.9375 -0.54688,0.76563 -1.20313,1.21875 -0.65625,0.4375 -1.59375,0.67188 -0.9375,0.21875 -2.14062,0.21875 z m 1.76562,-1.57813 h 2.85938 q 1.3125,0 2.0625,-0.23437 0.75,-0.25 1.20312,-0.70313 0.625,-0.625 0.96875,-1.6875 0.35938,-1.0625 0.35938,-2.57812 0,-2.09375 -0.6875,-3.21875 -0.6875,-1.125 -1.67188,-1.5 -0.70312,-0.28125 -2.28125,-0.28125 h -2.8125 z m 17.81668,0.39063 q -0.92187,0.76562 -1.76562,1.09375 -0.82813,0.3125 -1.79688,0.3125 -1.59375,0 -2.45312,-0.78125 -0.85938,-0.78125 -0.85938,-1.98438 0,-0.71875 0.32813,-1.29687 0.32812,-0.59375 0.84375,-0.9375 0.53125,-0.35938 1.1875,-0.54688 0.46875,-0.125 1.45312,-0.25 1.98438,-0.23437 2.92188,-0.5625 0.0156,-0.34375 0.0156,-0.42187 0,-1 -0.46875,-1.42188 -0.625,-0.54687 -1.875,-0.54687 -1.15625,0 -1.70312,0.40625 -0.54688,0.40625 -0.8125,1.42187 l -1.60938,-0.21875 q 0.21875,-1.01562 0.71875,-1.64062 0.5,-0.64063 1.45313,-0.98438 0.95312,-0.34375 2.1875,-0.34375 1.25,0 2.01562,0.29688 0.78125,0.28125 1.14063,0.73437 0.375,0.4375 0.51562,1.10938 0.0781,0.42187 0.0781,1.51562 v 2.1875 q 0,2.28125 0.10937,2.89063 0.10938,0.59375 0.40625,1.15625 h -1.70312 q -0.26563,-0.51563 -0.32813,-1.1875 z m -0.14062,-3.67188 q -0.89063,0.375 -2.67188,0.625 -1.01562,0.14063 -1.4375,0.32813 -0.42187,0.1875 -0.65625,0.53125 -0.21875,0.34375 -0.21875,0.78125 0,0.65625 0.5,1.09375 0.5,0.4375 1.45313,0.4375 0.9375,0 1.67187,-0.40625 0.75,-0.42188 1.09375,-1.14063 0.26563,-0.5625 0.26563,-1.64062 z m 7.78195,3.39063 0.23438,1.45312 q -0.6875,0.14063 -1.23438,0.14063 -0.89062,0 -1.39062,-0.28125 -0.48438,-0.28125 -0.6875,-0.73438 -0.20313,-0.46875 -0.20313,-1.9375 v -5.57812 H 309.948 v -1.26563 h 1.20312 v -2.39062 l 1.625,-0.98438 v 3.375 h 1.65625 v 1.26563 h -1.65625 v 5.67187 q 0,0.6875 0.0781,0.89063 0.0937,0.20312 0.28125,0.32812 0.20312,0.10938 0.57812,0.10938 0.26563,0 0.71875,-0.0625 z m 7.9177,0.28125 q -0.92188,0.76562 -1.76563,1.09375 -0.82812,0.3125 -1.79687,0.3125 -1.59375,0 -2.45313,-0.78125 -0.85937,-0.78125 -0.85937,-1.98438 0,-0.71875 0.32812,-1.29687 0.32813,-0.59375 0.84375,-0.9375 0.53125,-0.35938 1.1875,-0.54688 0.46875,-0.125 1.45313,-0.25 1.98437,-0.23437 2.92187,-0.5625 0.0156,-0.34375 0.0156,-0.42187 0,-1 -0.46875,-1.42188 -0.625,-0.54687 -1.875,-0.54687 -1.15625,0 -1.70313,0.40625 -0.54687,0.40625 -0.8125,1.42187 l -1.60937,-0.21875 q 0.21875,-1.01562 0.71875,-1.64062 0.5,-0.64063 1.45312,-0.98438 0.95313,-0.34375 2.1875,-0.34375 1.25,0 2.01563,0.29688 0.78125,0.28125 1.14062,0.73437 0.375,0.4375 0.51563,1.10938 0.0781,0.42187 0.0781,1.51562 v 2.1875 q 0,2.28125 0.10938,2.89063 0.10937,0.59375 0.40625,1.15625 h -1.70313 q -0.26562,-0.51563 -0.32812,-1.1875 z m -0.14063,-3.67188 q -0.89062,0.375 -2.67187,0.625 -1.01563,0.14063 -1.4375,0.32813 -0.42188,0.1875 -0.65625,0.53125 -0.21875,0.34375 -0.21875,0.78125 0,0.65625 0.5,1.09375 0.5,0.4375 1.45312,0.4375 0.9375,0 1.67188,-0.40625 0.75,-0.42188 1.09375,-1.14063 0.26562,-0.5625 0.26562,-1.64062 z"
       fill-rule="nonzero"
       id="path55" />
    <path
       fill="#666666"
       d="m 170.16011,315.88284 h 270.62994 v 55.51181 H 170.16011 Z"
       fill-rule="evenodd"
       id="path57" />
    <path
       fill="#515151"
       d="m 440.79004,315.88284 18.50394,-18.50394 v 55.51181 l -18.50394,18.50394 z"
       fill-rule="evenodd"
       id="path59" />
    <path
       fill="#848484"
       d="m 170.16011,315.88284 18.50394,-18.50394 h 270.62994 l -18.50394,18.50394 z"
       fill-rule="evenodd"
       id="path61" />
    <path
       fill="#000000"
       fill-opacity="0"
       d="m 170.16011,315.88284 18.50394,-18.50394 h 270.62994 v 55.51181 l -18.50394,18.50394 H 170.16011 Z m 0,0 h 270.62994 l 18.50394,-18.50394 m -18.50394,18.50394 v 55.51181"
       fill-rule="evenodd"
       id="path63" />
    <path
       fill="#ffffff"
       d="m 232.79251,350.55875 v -13.35938 h 9.65625 v 1.57813 h -7.875 v 4.09375 h 7.375 v 1.5625 h -7.375 v 4.54687 h 8.1875 v 1.57813 z m 11.11545,0 3.53125,-5.03125 -3.26563,-4.64063 h 2.04688 l 1.48437,2.26563 q 0.42188,0.64062 0.67188,1.07812 0.40625,-0.59375 0.73437,-1.0625 l 1.64063,-2.28125 h 1.95312 l -3.34375,4.54688 3.59375,5.125 h -2.01562 l -1.98438,-3 -0.51562,-0.8125 -2.54688,3.8125 z m 14,-1.46875 0.23437,1.45312 q -0.6875,0.14063 -1.23437,0.14063 -0.89063,0 -1.39063,-0.28125 -0.48437,-0.28125 -0.6875,-0.73438 -0.20312,-0.46875 -0.20312,-1.9375 v -5.57812 h -1.20313 v -1.26563 h 1.20313 v -2.39062 l 1.625,-0.98438 v 3.375 h 1.65625 v 1.26563 h -1.65625 v 5.67187 q 0,0.6875 0.0781,0.89063 0.0937,0.20312 0.28125,0.32812 0.20313,0.10938 0.57813,0.10938 0.26562,0 0.71875,-0.0625 z m 8.23019,-1.64063 1.6875,0.20313 q -0.40625,1.48437 -1.48437,2.3125 -1.07813,0.8125 -2.76563,0.8125 -2.125,0 -3.375,-1.29688 -1.23437,-1.3125 -1.23437,-3.67187 0,-2.45313 1.25,-3.79688 1.26562,-1.34375 3.26562,-1.34375 1.9375,0 3.15625,1.32813 1.23438,1.3125 1.23438,3.70312 0,0.15625 0,0.4375 h -7.21875 q 0.0937,1.59375 0.90625,2.45313 0.8125,0.84375 2.01562,0.84375 0.90625,0 1.54688,-0.46875 0.64062,-0.48438 1.01562,-1.51563 z m -5.39062,-2.65625 h 5.40625 q -0.10938,-1.21875 -0.625,-1.82812 -0.78125,-0.95313 -2.03125,-0.95313 -1.125,0 -1.90625,0.76563 -0.76563,0.75 -0.84375,2.01562 z m 9.14132,5.76563 v -9.67188 h 1.46875 v 1.375 q 1.0625,-1.59375 3.07813,-1.59375 0.875,0 1.60937,0.3125 0.73438,0.3125 1.09375,0.82813 0.375,0.5 0.51563,1.20312 0.0937,0.45313 0.0937,1.59375 v 5.95313 h -1.64063 v -5.89063 q 0,-1 -0.20312,-1.48437 -0.1875,-0.5 -0.67188,-0.79688 -0.48437,-0.29687 -1.14062,-0.29687 -1.04688,0 -1.8125,0.67187 -0.75,0.65625 -0.75,2.51563 v 5.28125 z m 9.71949,-2.89063 1.625,-0.25 q 0.125,0.96875 0.75,1.5 0.625,0.51563 1.75,0.51563 1.125,0 1.67187,-0.45313 0.54688,-0.46875 0.54688,-1.09375 0,-0.54687 -0.48438,-0.875 -0.32812,-0.21875 -1.67187,-0.54687 -1.8125,-0.46875 -2.51563,-0.79688 -0.6875,-0.32812 -1.04687,-0.90625 -0.35938,-0.59375 -0.35938,-1.3125 0,-0.64062 0.29688,-1.1875 0.29687,-0.5625 0.8125,-0.92187 0.375,-0.28125 1.03125,-0.46875 0.67187,-0.20313 1.42187,-0.20313 1.14063,0 2,0.32813 0.85938,0.32812 1.26563,0.89062 0.42187,0.5625 0.57812,1.5 l -1.60937,0.21875 q -0.10938,-0.75 -0.64063,-1.17187 -0.51562,-0.42188 -1.46875,-0.42188 -1.14062,0 -1.625,0.375 -0.46875,0.375 -0.46875,0.875 0,0.3125 0.1875,0.57813 0.20313,0.26562 0.64063,0.4375 0.23437,0.0937 1.4375,0.42187 1.75,0.45313 2.4375,0.75 0.6875,0.29688 1.07812,0.85938 0.39063,0.5625 0.39063,1.40625 0,0.82812 -0.48438,1.54687 -0.46875,0.71875 -1.375,1.125 -0.90625,0.39063 -2.04687,0.39063 -1.875,0 -2.875,-0.78125 -0.98438,-0.78125 -1.25,-2.32813 z m 9.98437,-8.57812 v -1.89063 h 1.64063 V 339.09 Z m 0,11.46875 v -9.67188 h 1.64063 v 9.67188 z m 3.53543,-4.84375 q 0,-2.6875 1.48438,-3.96875 1.25,-1.07813 3.04687,-1.07813 2,0 3.26563,1.3125 1.26562,1.29688 1.26562,3.60938 0,1.85937 -0.5625,2.9375 -0.5625,1.0625 -1.64062,1.65625 -1.0625,0.59375 -2.32813,0.59375 -2.03125,0 -3.28125,-1.29688 -1.25,-1.3125 -1.25,-3.76562 z m 1.6875,0 q 0,1.85937 0.79688,2.79687 0.8125,0.92188 2.04687,0.92188 1.21875,0 2.03125,-0.92188 0.8125,-0.9375 0.8125,-2.84375 0,-1.79687 -0.8125,-2.71875 -0.8125,-0.92187 -2.03125,-0.92187 -1.23437,0 -2.04687,0.92187 -0.79688,0.90625 -0.79688,2.76563 z m 9.29758,4.84375 v -9.67188 h 1.46875 v 1.375 q 1.0625,-1.59375 3.07812,-1.59375 0.875,0 1.60938,0.3125 0.73437,0.3125 1.09375,0.82813 0.375,0.5 0.51562,1.20312 0.0937,0.45313 0.0937,1.59375 v 5.95313 h -1.64062 v -5.89063 q 0,-1 -0.20313,-1.48437 -0.1875,-0.5 -0.67187,-0.79688 -0.48438,-0.29687 -1.14063,-0.29687 -1.04687,0 -1.8125,0.67187 -0.75,0.65625 -0.75,2.51563 v 5.28125 z"
       fill-rule="nonzero"
       id="path65" />
    <path
       fill="#ffffff"
       d="m 319.93787,350.55875 v -13.35938 h 1.76562 v 5.48438 h 6.9375 v -5.48438 h 1.76563 v 13.35938 h -1.76563 v -6.29688 h -6.9375 v 6.29688 z m 19.83234,-3.10938 1.6875,0.20313 q -0.40625,1.48437 -1.48438,2.3125 -1.07812,0.8125 -2.76562,0.8125 -2.125,0 -3.375,-1.29688 -1.23438,-1.3125 -1.23438,-3.67187 0,-2.45313 1.25,-3.79688 1.26563,-1.34375 3.26563,-1.34375 1.9375,0 3.15625,1.32813 1.23437,1.3125 1.23437,3.70312 0,0.15625 0,0.4375 h -7.21875 q 0.0937,1.59375 0.90625,2.45313 0.8125,0.84375 2.01563,0.84375 0.90625,0 1.54687,-0.46875 0.64063,-0.48438 1.01563,-1.51563 z m -5.39063,-2.65625 h 5.40625 q -0.10937,-1.21875 -0.625,-1.82812 -0.78125,-0.95313 -2.03125,-0.95313 -1.125,0 -1.90625,0.76563 -0.76562,0.75 -0.84375,2.01562 z m 15.45383,4.57813 q -0.92188,0.76562 -1.76563,1.09375 -0.82812,0.3125 -1.79687,0.3125 -1.59375,0 -2.45313,-0.78125 -0.85937,-0.78125 -0.85937,-1.98438 0,-0.71875 0.32812,-1.29687 0.32813,-0.59375 0.84375,-0.9375 0.53125,-0.35938 1.1875,-0.54688 0.46875,-0.125 1.45313,-0.25 1.98437,-0.23437 2.92187,-0.5625 0.0156,-0.34375 0.0156,-0.42187 0,-1 -0.46875,-1.42188 -0.625,-0.54687 -1.875,-0.54687 -1.15625,0 -1.70313,0.40625 -0.54687,0.40625 -0.8125,1.42187 l -1.60937,-0.21875 q 0.21875,-1.01562 0.71875,-1.64062 0.5,-0.64063 1.45312,-0.98438 0.95313,-0.34375 2.1875,-0.34375 1.25,0 2.01563,0.29688 0.78125,0.28125 1.14062,0.73437 0.375,0.4375 0.51563,1.10938 0.0781,0.42187 0.0781,1.51562 v 2.1875 q 0,2.28125 0.10938,2.89063 0.10937,0.59375 0.40625,1.15625 h -1.70313 q -0.26562,-0.51563 -0.32812,-1.1875 z m -0.14063,-3.67188 q -0.89062,0.375 -2.67187,0.625 -1.01563,0.14063 -1.4375,0.32813 -0.42188,0.1875 -0.65625,0.53125 -0.21875,0.34375 -0.21875,0.78125 0,0.65625 0.5,1.09375 0.5,0.4375 1.45312,0.4375 0.9375,0 1.67188,-0.40625 0.75,-0.42188 1.09375,-1.14063 0.26562,-0.5625 0.26562,-1.64062 z m 10.46948,4.85938 V 349.34 q -0.90625,1.4375 -2.70312,1.4375 -1.15625,0 -2.125,-0.64063 -0.96875,-0.64062 -1.5,-1.78125 -0.53125,-1.14062 -0.53125,-2.625 0,-1.45312 0.48437,-2.625 0.48438,-1.1875 1.4375,-1.8125 0.96875,-0.625 2.17188,-0.625 0.875,0 1.54687,0.375 0.6875,0.35938 1.10938,0.95313 v -4.79688 h 1.64062 v 13.35938 z m -5.17187,-4.82813 q 0,1.85938 0.78125,2.78125 0.78125,0.92188 1.84375,0.92188 1.07812,0 1.82812,-0.875 0.75,-0.89063 0.75,-2.6875 0,-1.98438 -0.76562,-2.90625 -0.76563,-0.9375 -1.89063,-0.9375 -1.07812,0 -1.8125,0.89062 -0.73437,0.89063 -0.73437,2.8125 z m 15.90695,1.71875 1.6875,0.20313 q -0.40625,1.48437 -1.48437,2.3125 -1.07813,0.8125 -2.76563,0.8125 -2.125,0 -3.375,-1.29688 -1.23437,-1.3125 -1.23437,-3.67187 0,-2.45313 1.25,-3.79688 1.26562,-1.34375 3.26562,-1.34375 1.9375,0 3.15625,1.32813 1.23438,1.3125 1.23438,3.70312 0,0.15625 0,0.4375 h -7.21875 q 0.0937,1.59375 0.90625,2.45313 0.8125,0.84375 2.01562,0.84375 0.90625,0 1.54688,-0.46875 0.64062,-0.48438 1.01562,-1.51563 z m -5.39062,-2.65625 h 5.40625 q -0.10938,-1.21875 -0.625,-1.82812 -0.78125,-0.95313 -2.03125,-0.95313 -1.125,0 -1.90625,0.76563 -0.76563,0.75 -0.84375,2.01562 z m 9.12573,5.76563 v -9.67188 h 1.46875 v 1.46875 q 0.5625,-1.03125 1.03125,-1.35937 0.48437,-0.32813 1.0625,-0.32813 0.82812,0 1.6875,0.53125 l -0.5625,1.51563 q -0.60938,-0.35938 -1.20313,-0.35938 -0.54687,0 -0.96875,0.32813 -0.42187,0.32812 -0.60937,0.89062 -0.28125,0.875 -0.28125,1.92188 v 5.0625 z"
       fill-rule="nonzero"
       id="path67" />
    <path
       fill="#999999"
       d="M 519.8898,433.13385 V 16.80315 h -50.40945 v 416.3307 z"
       fill-rule="evenodd"
       id="path69" />
    <path
       fill="#7a7a7a"
       d="M 519.8898,16.80315 536.69296,0 h -50.40945 l -16.80316,16.80315 z"
       fill-rule="evenodd"
       id="path71" />
    <path
       fill="#adadad"
       d="m 519.8898,433.13385 16.80316,-16.80313 V -1e-6 l -16.80316,16.80315 z"
       fill-rule="evenodd"
       id="path73" />
    <path
       fill="#000000"
       fill-opacity="0"
       d="m 519.8898,433.13385 16.80316,-16.80313 V -1e-6 h -50.40945 l -16.80316,16.80315 V 433.13385 Z m 0,0 V 16.80315 L 536.69296,0 M 519.8898,16.80315 h -50.40945"
       fill-rule="evenodd"
       id="path75" />
    <path
       fill="#ffffff"
       d="m 487.76505,132.3321 h 11.78125 v -4.40625 h 1.57812 v 10.57812 h -1.57812 v -4.40625 h -11.78125 z m 4.84375,5.10822 q 2.6875,0 3.96875,1.48437 1.07812,1.25 1.07812,3.04688 0,2 -1.3125,3.26562 -1.29687,1.26563 -3.60937,1.26563 -1.85938,0 -2.9375,-0.5625 -1.0625,-0.5625 -1.65625,-1.64063 -0.59375,-1.0625 -0.59375,-2.32812 0,-2.03125 1.29687,-3.28125 1.3125,-1.25 3.76563,-1.25 z m 0,1.6875 q -1.85938,0 -2.79688,0.79687 -0.92187,0.8125 -0.92187,2.04688 0,1.21875 0.92187,2.03125 0.9375,0.8125 2.84375,0.8125 1.79688,0 2.71875,-0.8125 0.92188,-0.8125 0.92188,-2.03125 0,-1.23438 -0.92188,-2.04688 -0.90625,-0.79687 -2.76562,-0.79687 z m -8.54688,9.29759 h 13.375 v 1.48437 h -1.25 q 0.73438,0.53125 1.09375,1.1875 0.375,0.67188 0.375,1.625 0,1.23438 -0.64062,2.17188 -0.625,0.95312 -1.79688,1.4375 -1.15625,0.48437 -2.54687,0.48437 -1.48438,0 -2.67188,-0.53125 -1.1875,-0.53125 -1.82812,-1.54687 -0.625,-1.01563 -0.625,-2.14063 0,-0.8125 0.34375,-1.46875 0.34375,-0.65625 0.875,-1.0625 h -4.70313 z m 8.48438,1.48437 q -1.85938,0 -2.76563,0.75 -0.89062,0.76563 -0.89062,1.82813 0,1.09375 0.92187,1.875 0.9375,0.78125 2.875,0.78125 1.84375,0 2.76563,-0.76563 0.92187,-0.75 0.92187,-1.8125 0,-1.04687 -0.98437,-1.85937 -0.96875,-0.79688 -2.84375,-0.79688 z m -4.78125,14.34027 h 13.35937 v 1.76563 h -5.48437 v 6.9375 h 5.48437 v 1.76562 h -13.35937 v -1.76562 h 6.29687 v -6.9375 h -6.29687 z m 3.10937,19.83232 -0.20312,1.6875 q -1.48438,-0.40625 -2.3125,-1.48437 -0.8125,-1.07813 -0.8125,-2.76563 0,-2.125 1.29687,-3.375 1.3125,-1.23437 3.67188,-1.23437 2.45312,0 3.79687,1.25 1.34375,1.26562 1.34375,3.26562 0,1.9375 -1.32812,3.15625 -1.3125,1.23438 -3.70313,1.23438 -0.15625,0 -0.4375,0 V 178.598 q -1.59375,0.0937 -2.45312,0.90625 -0.84375,0.8125 -0.84375,2.01562 0,0.90625 0.46875,1.54688 0.48437,0.64062 1.51562,1.01562 z m 2.65625,-5.39062 v 5.40625 q 1.21875,-0.10938 1.82813,-0.625 0.95312,-0.78125 0.95312,-2.03125 0,-1.125 -0.76562,-1.90625 -0.75,-0.76563 -2.01563,-0.84375 z m -4.57812,15.45384 q -0.76563,-0.92187 -1.09375,-1.76562 -0.3125,-0.82813 -0.3125,-1.79688 0,-1.59375 0.78125,-2.45312 0.78125,-0.85938 1.98437,-0.85938 0.71875,0 1.29688,0.32813 0.59375,0.32812 0.9375,0.84375 0.35937,0.53125 0.54687,1.1875 0.125,0.46875 0.25,1.45312 0.23438,1.98438 0.5625,2.92188 0.34375,0.0156 0.42188,0.0156 1,0 1.42187,-0.46875 0.54688,-0.625 0.54688,-1.875 0,-1.15625 -0.40625,-1.70312 -0.40625,-0.54688 -1.42188,-0.8125 l 0.21875,-1.60938 q 1.01563,0.21875 1.64063,0.71875 0.64062,0.5 0.98437,1.45313 0.34375,0.95312 0.34375,2.1875 0,1.25 -0.29687,2.01562 -0.28125,0.78125 -0.73438,1.14063 -0.4375,0.375 -1.10937,0.51562 -0.42188,0.0781 -1.51563,0.0781 h -2.1875 q -2.28125,0 -2.89062,0.10937 -0.59375,0.10938 -1.15625,0.40625 v -1.70312 q 0.51562,-0.26563 1.1875,-0.32813 z m 3.67187,-0.14062 q -0.375,-0.89063 -0.625,-2.67188 -0.14062,-1.01562 -0.32812,-1.4375 -0.1875,-0.42187 -0.53125,-0.65625 -0.34375,-0.21875 -0.78125,-0.21875 -0.65625,0 -1.09375,0.5 -0.4375,0.5 -0.4375,1.45313 0,0.9375 0.40625,1.67187 0.42187,0.75 1.14062,1.09375 0.5625,0.26563 1.64063,0.26563 z m -4.85937,10.46946 h 1.21875 q -1.4375,-0.90625 -1.4375,-2.70312 0,-1.15625 0.64062,-2.125 0.64063,-0.96875 1.78125,-1.5 1.14063,-0.53125 2.625,-0.53125 1.45313,0 2.625,0.48437 1.1875,0.48438 1.8125,1.4375 0.625,0.96875 0.625,2.17188 0,0.875 -0.375,1.54687 -0.35937,0.6875 -0.95312,1.10938 h 4.79687 v 1.64062 h -13.35937 z m 4.82812,-5.17187 q -1.85937,0 -2.78125,0.78125 -0.92187,0.78125 -0.92187,1.84375 0,1.07812 0.875,1.82812 0.89062,0.75 2.6875,0.75 1.98437,0 2.90625,-0.76562 0.9375,-0.76563 0.9375,-1.89063 0,-1.07812 -0.89063,-1.8125 -0.89062,-0.73437 -2.8125,-0.73437 z m -1.71875,15.90697 -0.20312,1.6875 q -1.48438,-0.40625 -2.3125,-1.48438 -0.8125,-1.07812 -0.8125,-2.76562 0,-2.125 1.29687,-3.375 1.3125,-1.23438 3.67188,-1.23438 2.45312,0 3.79687,1.25 1.34375,1.26563 1.34375,3.26563 0,1.9375 -1.32812,3.15625 -1.3125,1.23437 -3.70313,1.23437 -0.15625,0 -0.4375,0 v -7.21875 q -1.59375,0.0937 -2.45312,0.90625 -0.84375,0.8125 -0.84375,2.01563 0,0.90625 0.46875,1.54687 0.48437,0.64063 1.51562,1.01563 z m 2.65625,-5.39063 v 5.40625 q 1.21875,-0.10937 1.82813,-0.625 0.95312,-0.78125 0.95312,-2.03125 0,-1.125 -0.76562,-1.90625 -0.75,-0.76562 -2.01563,-0.84375 z m -5.76562,9.12572 h 9.67187 v 1.46875 h -1.46875 q 1.03125,0.5625 1.35938,1.03125 0.32812,0.48437 0.32812,1.0625 0,0.82812 -0.53125,1.6875 l -1.51562,-0.5625 q 0.35937,-0.60938 0.35937,-1.20313 0,-0.54687 -0.32812,-0.96875 -0.32813,-0.42187 -0.89063,-0.60937 -0.875,-0.28125 -1.92187,-0.28125 h -5.0625 z m 0,11.9116 h 13.35937 v 1.76563 h -13.35937 z m 0,4.68331 h 9.67187 v 1.46875 h -1.375 q 1.59375,1.0625 1.59375,3.07812 0,0.875 -0.3125,1.60938 -0.3125,0.73437 -0.82812,1.09375 -0.5,0.375 -1.20313,0.51562 -0.45312,0.0937 -1.59375,0.0937 h -5.95312 v -1.64062 h 5.89062 q 1,0 1.48438,-0.20313 0.5,-0.1875 0.79687,-0.67187 0.29688,-0.48438 0.29688,-1.14063 0,-1.04687 -0.67188,-1.8125 -0.65625,-0.75 -2.51562,-0.75 h -5.28125 z m 0,10.76634 h 8.40625 v -1.45313 h 1.26562 v 1.45313 h 1.03125 q 0.96875,0 1.45313,0.17187 0.64062,0.23438 1.03125,0.82813 0.39062,0.59375 0.39062,1.67187 0,0.6875 -0.15625,1.53125 l -1.4375,-0.25 q 0.0937,-0.5 0.0937,-0.95312 0,-0.75 -0.32812,-1.0625 -0.3125,-0.3125 -1.1875,-0.3125 h -0.89063 v 1.89062 h -1.26562 v -1.89062 H 487.765 Z m 4.84375,4.1833 q 2.6875,0 3.96875,1.48438 1.07812,1.25 1.07812,3.04687 0,2.00002 -1.3125,3.26564 -1.29687,1.26563 -3.60937,1.26563 -1.85938,0 -2.9375,-0.5625 -1.0625,-0.5625 -1.65625,-1.64063 -0.59375,-1.0625 -0.59375,-2.32814 0,-2.03125 1.29687,-3.28125 1.3125,-1.25 3.76563,-1.25 z m 0,1.6875 q -1.85938,0 -2.79688,0.79688 -0.92187,0.8125 -0.92187,2.04687 0,1.21877 0.92187,2.03127 0.9375,0.8125 2.84375,0.8125 1.79688,0 2.71875,-0.8125 0.92188,-0.8125 0.92188,-2.03127 0,-1.23437 -0.92188,-2.04687 -0.90625,-0.79688 -2.76562,-0.79688 z m -4.84375,9.28197 h 9.67187 v 1.46875 h -1.46875 q 1.03125,0.5625 1.35938,1.03125 0.32812,0.48438 0.32812,1.0625 0,0.82813 -0.53125,1.6875 l -1.51562,-0.5625 q 0.35937,-0.60937 0.35937,-1.20312 0,-0.54688 -0.32812,-0.96875 -0.32813,-0.42188 -0.89063,-0.60938 -0.875,-0.28125 -1.92187,-0.28125 h -5.0625 z m 0,6.2283 h 9.67187 v 1.46875 h -1.35937 q 0.71875,0.45313 1.14062,1.20313 0.4375,0.76562 0.4375,1.71875 0,1.07812 -0.45312,1.76562 -0.4375,0.6875 -1.23438,0.96875 1.6875,1.15625 1.6875,2.98438 0,1.45312 -0.79687,2.21875 -0.79688,0.78125 -2.45313,0.78125 h -6.64062 v -1.64063 h 6.09375 q 0.98437,0 1.40625,-0.15625 0.4375,-0.15625 0.70312,-0.57812 0.26563,-0.42188 0.26563,-0.98438 0,-1.01562 -0.6875,-1.6875 -0.67188,-0.67187 -2.15625,-0.67187 h -5.625 v -1.64063 h 6.28125 q 1.09375,0 1.64062,-0.40625 0.54688,-0.40625 0.54688,-1.3125 0,-0.6875 -0.35938,-1.28125 -0.35937,-0.59375 -1.0625,-0.85937 -0.70312,-0.25 -2.03125,-0.25 h -5.01562 z m 1.1875,21.85334 q -0.76563,-0.92188 -1.09375,-1.76563 -0.3125,-0.82812 -0.3125,-1.79687 0,-1.59375 0.78125,-2.45313 0.78125,-0.85937 1.98437,-0.85937 0.71875,0 1.29688,0.32812 0.59375,0.32813 0.9375,0.84375 0.35937,0.53125 0.54687,1.1875 0.125,0.46875 0.25,1.45313 0.23438,1.98437 0.5625,2.92187 0.34375,0.0156 0.42188,0.0156 1,0 1.42187,-0.46875 0.54688,-0.625 0.54688,-1.875 0,-1.15625 -0.40625,-1.70313 -0.40625,-0.54687 -1.42188,-0.8125 l 0.21875,-1.60937 q 1.01563,0.21875 1.64063,0.71875 0.64062,0.5 0.98437,1.45312 0.34375,0.95313 0.34375,2.1875 0,1.25 -0.29687,2.01563 -0.28125,0.78125 -0.73438,1.14062 -0.4375,0.375 -1.10937,0.51563 -0.42188,0.0781 -1.51563,0.0781 h -2.1875 q -2.28125,0 -2.89062,0.10938 -0.59375,0.10937 -1.15625,0.40625 v -1.70313 q 0.51562,-0.26562 1.1875,-0.32812 z m 3.67187,-0.14063 q -0.375,-0.89062 -0.625,-2.67187 -0.14062,-1.01563 -0.32812,-1.4375 -0.1875,-0.42188 -0.53125,-0.65625 -0.34375,-0.21875 -0.78125,-0.21875 -0.65625,0 -1.09375,0.5 -0.4375,0.5 -0.4375,1.45312 0,0.9375 0.40625,1.67188 0.42187,0.75 1.14062,1.09375 0.5625,0.26562 1.64063,0.26562 z m -3.39062,7.78195 -1.45313,0.23438 q -0.14062,-0.6875 -0.14062,-1.23438 0,-0.89062 0.28125,-1.39062 0.28125,-0.48438 0.73437,-0.6875 0.46875,-0.20313 1.9375,-0.20313 h 5.57813 v -1.20312 h 1.26562 v 1.20312 h 2.39063 l 0.98437,1.625 h -3.375 v 1.65625 h -1.26562 v -1.65625 h -5.67188 q -0.6875,0 -0.89062,0.0781 -0.20313,0.0937 -0.32813,0.28125 -0.10937,0.20312 -0.10937,0.57812 0,0.26563 0.0625,0.71875 z m 10,1.6052 h 1.89062 v 1.64062 h -1.89062 z m -11.46875,0 h 9.67187 v 1.64062 h -9.67187 z m 4.84375,3.53543 q 2.6875,0 3.96875,1.48437 1.07812,1.25 1.07812,3.04688 0,2 -1.3125,3.26562 -1.29687,1.26563 -3.60937,1.26563 -1.85938,0 -2.9375,-0.5625 -1.0625,-0.5625 -1.65625,-1.64063 -0.59375,-1.0625 -0.59375,-2.32812 0,-2.03125 1.29687,-3.28125 1.3125,-1.25 3.76563,-1.25 z m 0,1.6875 q -1.85938,0 -2.79688,0.79687 -0.92187,0.8125 -0.92187,2.04688 0,1.21875 0.92187,2.03125 0.9375,0.8125 2.84375,0.8125 1.79688,0 2.71875,-0.8125 0.92188,-0.8125 0.92188,-2.03125 0,-1.23438 -0.92188,-2.04688 -0.90625,-0.79687 -2.76562,-0.79687 z m -4.84375,9.29757 h 9.67187 v 1.46875 h -1.375 q 1.59375,1.0625 1.59375,3.07813 0,0.875 -0.3125,1.60937 -0.3125,0.73438 -0.82812,1.09375 -0.5,0.375 -1.20313,0.51563 -0.45312,0.0937 -1.59375,0.0937 h -5.95312 V 319.526 h 5.89062 q 1,0 1.48438,-0.20312 0.5,-0.1875 0.79687,-0.67188 0.29688,-0.48437 0.29688,-1.14062 0,-1.04688 -0.67188,-1.8125 -0.65625,-0.75 -2.51562,-0.75 h -5.28125 z"
       fill-rule="nonzero"
       id="path77" />
    <path
       fill="#000000"
       fill-opacity="0"
       d="m 139.84251,135.75066 c -6.88834,0 -12.47243,-5.58411 -12.47243,-12.47244 V 80.601055 c 0,-6.888344 -5.5841,-12.472443 -12.47245,-12.472443 v 0 c 6.88835,0 12.47245,-5.584103 12.47245,-12.472443 v -42.677162 0 c 0,-6.888339 5.58409,-12.472442 12.47243,-12.472442 z"
       fill-rule="evenodd"
       id="path79" />
    <path
       fill="#000000"
       fill-opacity="0"
       d="m 139.84251,135.75066 c -6.88834,0 -12.47243,-5.58411 -12.47243,-12.47244 V 80.601055 c 0,-6.888344 -5.5841,-12.472443 -12.47245,-12.472443 v 0 c 6.88835,0 12.47245,-5.584103 12.47245,-12.472443 v -42.677162 0 c 0,-6.888339 5.58409,-12.472442 12.47243,-12.472442"
       fill-rule="evenodd"
       id="path81" />
    <path
       stroke="#ffffff"
       stroke-width="2"
       stroke-linejoin="round"
       stroke-linecap="butt"
       d="m 139.84251,135.75066 c -6.88834,0 -12.47243,-5.58411 -12.47243,-12.47244 V 80.601055 c 0,-6.888344 -5.5841,-12.472443 -12.47245,-12.472443 v 0 c 6.88835,0 12.47245,-5.584103 12.47245,-12.472443 v -42.677162 0 c 0,-6.888339 5.58409,-12.472442 12.47243,-12.472442"
       fill-rule="evenodd"
       id="path83" />
    <path
       fill="#000000"
       fill-opacity="0"
       d="M 0,37.892387 H 114.89764 V 98.36483 H 0 Z"
       fill-rule="evenodd"
       id="path85" />
    <path
       fill="#ffffff"
       d="m 20.03085,76.76861 v -17.1875 h 2.28125 v 7.0625 h 8.921875 v -7.0625 h 2.28125 v 17.1875 h -2.28125 V 68.67486 H 22.3121 v 8.09375 z m 17.269531,0 v -17.1875 h 5.90625 q 2.015625,0 3.0625,0.25 1.484375,0.34375 2.515625,1.234375 1.359375,1.140625 2.03125,2.9375 0.6875,1.78125 0.6875,4.078125 0,1.953125 -0.46875,3.46875 -0.453125,1.515625 -1.171875,2.515625 -0.703125,0.984375 -1.5625,1.546875 -0.84375,0.5625 -2.046875,0.859375 -1.203125,0.296875 -2.765625,0.296875 z m 2.265625,-2.03125 h 3.671875 q 1.703125,0 2.65625,-0.3125 0.96875,-0.3125 1.546875,-0.890625 0.8125,-0.8125 1.265625,-2.171875 0.453125,-1.375 0.453125,-3.3125 0,-2.703125 -0.890625,-4.140625 -0.890625,-1.453125 -2.15625,-1.9375 -0.90625,-0.359375 -2.9375,-0.359375 H 39.566006 Z M 65.898041,59.58111 h 2.28125 v 9.9375 q 0,2.578125 -0.59375,4.109375 -0.578125,1.515625 -2.109375,2.484375 -1.531254,0.953125 -4.015629,0.953125 -2.421875,0 -3.953125,-0.828125 -1.53125,-0.84375 -2.1875,-2.421875 -0.65625,-1.578125 -0.65625,-4.296875 v -9.9375 h 2.265625 v 9.921875 q 0,2.234375 0.421875,3.296875 0.421875,1.0625 1.421875,1.640625 1.015625,0.5625 2.484375,0.5625 2.515625,0 3.578129,-1.125 1.0625,-1.140625 1.0625,-4.375 z m 5.832031,21.953125 V 59.58111 h 4.65625 v 1.75 h -2.546875 v 18.46875 h 2.546875 v 1.734375 z M 77.773041,68.29986 q 0,-3.046875 0.625,-4.90625 0.625,-1.859375 1.859375,-2.859375 1.234375,-1.015625 3.109375,-1.015625 1.390625,0 2.421875,0.5625 1.046875,0.546875 1.71875,1.59375 0.6875,1.046875 1.078125,2.5625 0.390625,1.5 0.390625,4.0625 0,3.015625 -0.625,4.875 -0.625,1.859375 -1.859375,2.875 -1.234375,1.015625 -3.125,1.015625 -2.484375,0 -3.890625,-1.78125 -1.703125,-2.15625 -1.703125,-6.984375 z m 2.171875,0 q 0,4.21875 0.984375,5.625 0.984375,1.40625 2.4375,1.40625 1.453125,0 2.4375,-1.40625 1,-1.40625 1,-5.625 0,-4.25 -1,-5.640625 -0.984375,-1.390625 -2.453125,-1.390625 -1.453125,0 -2.328125,1.21875 -1.078125,1.578125 -1.078125,5.8125 z m 15.285156,13.234375 h -4.65625 V 79.79986 h 2.546875 V 61.33111 h -2.546875 v -1.75 h 4.65625 z"
       fill-rule="nonzero"
       id="path87" />
    <path
       fill="#000000"
       fill-opacity="0"
       d="m 139.84251,284.18896 c -6.88834,0 -12.47243,-5.58408 -12.47243,-12.47244 v -42.67716 c 0,-6.88833 -5.5841,-12.47244 -12.47245,-12.47244 v 0 c 6.88835,0 12.47245,-5.58409 12.47245,-12.47244 v -42.67716 0 c 0,-6.88835 5.58409,-12.47244 12.47243,-12.47244 z"
       fill-rule="evenodd"
       id="path89" />
    <path
       fill="#000000"
       fill-opacity="0"
       d="m 139.84251,284.18896 c -6.88834,0 -12.47243,-5.58408 -12.47243,-12.47244 v -42.67716 c 0,-6.88833 -5.5841,-12.47244 -12.47245,-12.47244 v 0 c 6.88835,0 12.47245,-5.58409 12.47245,-12.47244 v -42.67716 0 c 0,-6.88835 5.58409,-12.47244 12.47243,-12.47244"
       fill-rule="evenodd"
       id="path91" />
    <path
       stroke="#ffffff"
       stroke-width="2"
       stroke-linejoin="round"
       stroke-linecap="butt"
       d="m 139.84251,284.18896 c -6.88834,0 -12.47243,-5.58408 -12.47243,-12.47244 v -42.67716 c 0,-6.88833 -5.5841,-12.47244 -12.47245,-12.47244 v 0 c 6.88835,0 12.47245,-5.58409 12.47245,-12.47244 v -42.67716 0 c 0,-6.88835 5.58409,-12.47244 12.47243,-12.47244"
       fill-rule="evenodd"
       id="path93" />
    <path
       fill="#000000"
       fill-opacity="0"
       d="m 0,186.3307 h 114.89764 v 60.47244 H 0 Z"
       fill-rule="evenodd"
       id="path95" />
    <path
       fill="#ffffff"
       d="m 20.03085,225.20692 v -17.1875 h 2.28125 v 7.0625 h 8.921875 v -7.0625 h 2.28125 v 17.1875 h -2.28125 v -8.09375 H 22.3121 v 8.09375 z m 17.269531,0 v -17.1875 h 5.90625 q 2.015625,0 3.0625,0.25 1.484375,0.34375 2.515625,1.23437 1.359375,1.14063 2.03125,2.9375 0.6875,1.78125 0.6875,4.07813 0,1.95312 -0.46875,3.46875 -0.453125,1.51562 -1.171875,2.51562 -0.703125,0.98438 -1.5625,1.54688 -0.84375,0.5625 -2.046875,0.85937 -1.203125,0.29688 -2.765625,0.29688 z m 2.265625,-2.03125 h 3.671875 q 1.703125,0 2.65625,-0.3125 0.96875,-0.3125 1.546875,-0.89063 0.8125,-0.8125 1.265625,-2.17187 0.453125,-1.375 0.453125,-3.3125 0,-2.70313 -0.890625,-4.14063 -0.890625,-1.45312 -2.15625,-1.9375 -0.90625,-0.35937 -2.9375,-0.35937 h -3.609375 z m 26.332035,-15.15625 h 2.28125 v 9.9375 q 0,2.57812 -0.59375,4.10937 -0.578125,1.51563 -2.109375,2.48438 -1.531254,0.95312 -4.015629,0.95312 -2.421875,0 -3.953125,-0.82812 -1.53125,-0.84375 -2.1875,-2.42188 -0.65625,-1.57812 -0.65625,-4.29687 v -9.9375 h 2.265625 v 9.92187 q 0,2.23438 0.421875,3.29688 0.421875,1.0625 1.421875,1.64062 1.015625,0.5625 2.484375,0.5625 2.515625,0 3.578129,-1.125 1.0625,-1.14062 1.0625,-4.375 z m 5.832031,21.95312 v -21.95312 h 4.65625 v 1.75 h -2.546875 v 18.46875 h 2.546875 v 1.73437 z m 13.980469,-4.76562 h -2.109375 v -13.4375 q -0.75,0.71875 -2,1.45312 -1.234375,0.71875 -2.21875,1.07813 v -2.03125 q 1.78125,-0.82813 3.09375,-2.01563 1.328125,-1.1875 1.875,-2.29687 h 1.359375 z m 9.519531,4.76562 h -4.65625 v -1.73437 h 2.546875 v -18.46875 h -2.546875 v -1.75 h 4.65625 z"
       fill-rule="nonzero"
       id="path97" />
    <path
       fill="#000000"
       fill-opacity="0"
       d="m 139.84251,432.6273 c -6.88834,0 -12.47243,-5.58411 -12.47243,-12.47244 V 377.4777 c 0,-6.88833 -5.5841,-12.47244 -12.47245,-12.47244 v 0 c 6.88835,0 12.47245,-5.58411 12.47245,-12.47244 v -42.67716 0 c 0,-6.88833 5.58409,-12.47244 12.47243,-12.47244 z"
       fill-rule="evenodd"
       id="path99" />
    <path
       fill="#000000"
       fill-opacity="0"
       d="m 139.84251,432.6273 c -6.88834,0 -12.47243,-5.58411 -12.47243,-12.47244 V 377.4777 c 0,-6.88833 -5.5841,-12.47244 -12.47245,-12.47244 v 0 c 6.88835,0 12.47245,-5.58411 12.47245,-12.47244 v -42.67716 0 c 0,-6.88833 5.58409,-12.47244 12.47243,-12.47244"
       fill-rule="evenodd"
       id="path101" />
    <path
       stroke="#ffffff"
       stroke-width="2"
       stroke-linejoin="round"
       stroke-linecap="butt"
       d="m 139.84251,432.6273 c -6.88834,0 -12.47243,-5.58411 -12.47243,-12.47244 V 377.4777 c 0,-6.88833 -5.5841,-12.47244 -12.47245,-12.47244 v 0 c 6.88835,0 12.47245,-5.58411 12.47245,-12.47244 v -42.67716 0 c 0,-6.88833 5.58409,-12.47244 12.47243,-12.47244"
       fill-rule="evenodd"
       id="path103" />
    <path
       fill="#000000"
       fill-opacity="0"
       d="m 0,334.76904 h 114.89764 v 60.47241 H 0 Z"
       fill-rule="evenodd"
       id="path105" />
    <path
       fill="#ffffff"
       d="m 20.03085,373.64526 v -17.1875 h 2.28125 v 7.0625 h 8.921875 v -7.0625 h 2.28125 v 17.1875 h -2.28125 v -8.09375 H 22.3121 v 8.09375 z m 17.269531,0 v -17.1875 h 5.90625 q 2.015625,0 3.0625,0.25 1.484375,0.34375 2.515625,1.23437 1.359375,1.14063 2.03125,2.9375 0.6875,1.78125 0.6875,4.07813 0,1.95312 -0.46875,3.46875 -0.453125,1.51562 -1.171875,2.51562 -0.703125,0.98438 -1.5625,1.54688 -0.84375,0.5625 -2.046875,0.85937 -1.203125,0.29688 -2.765625,0.29688 z m 2.265625,-2.03125 h 3.671875 q 1.703125,0 2.65625,-0.3125 0.96875,-0.3125 1.546875,-0.89063 0.8125,-0.8125 1.265625,-2.17187 0.453125,-1.375 0.453125,-3.3125 0,-2.70313 -0.890625,-4.14063 -0.890625,-1.45312 -2.15625,-1.9375 -0.90625,-0.35937 -2.9375,-0.35937 h -3.609375 z m 26.332035,-15.15625 h 2.28125 v 9.9375 q 0,2.57812 -0.59375,4.10937 -0.578125,1.51563 -2.109375,2.48438 -1.531254,0.95312 -4.015629,0.95312 -2.421875,0 -3.953125,-0.82812 -1.53125,-0.84375 -2.1875,-2.42188 -0.65625,-1.57812 -0.65625,-4.29687 v -9.9375 h 2.265625 v 9.92187 q 0,2.23438 0.421875,3.29688 0.421875,1.0625 1.421875,1.64062 1.015625,0.5625 2.484375,0.5625 2.515625,0 3.578129,-1.125 1.0625,-1.14062 1.0625,-4.375 z m 5.832031,21.95312 v -21.95312 h 4.65625 v 1.75 h -2.546875 v 18.46875 h 2.546875 v 1.73437 z m 17.121094,-6.79687 v 2.03125 h -11.34375 q -0.03125,-0.76563 0.234375,-1.46875 0.4375,-1.15625 1.390625,-2.28125 0.953125,-1.125 2.765625,-2.60938 2.796875,-2.29687 3.78125,-3.625 0.984375,-1.34375 0.984375,-2.54687 0,-1.25 -0.90625,-2.10938 -0.890625,-0.85937 -2.328125,-0.85937 -1.515625,0 -2.4375,0.92187 -0.90625,0.90625 -0.921875,2.51563 l -2.171875,-0.21875 q 0.21875,-2.42188 1.671875,-3.6875 1.453125,-1.28125 3.90625,-1.28125 2.46875,0 3.90625,1.375 1.453125,1.35937 1.453125,3.39062 0,1.03125 -0.421875,2.03125 -0.421875,1 -1.40625,2.10938 -0.96875,1.09375 -3.25,3.01562 -1.890625,1.59375 -2.4375,2.15625 -0.53125,0.5625 -0.890625,1.14063 z m 6.378906,6.79687 h -4.65625 v -1.73437 h 2.546875 v -18.46875 h -2.546875 v -1.75 h 4.65625 z"
       fill-rule="nonzero"
       id="path107" />
  </g>
</svg>
